<mxfile host="app.diagrams.net" modified="2021-08-30T14:57:25.218Z" agent="5.0 (Macintosh; Intel Mac OS X 10_15_7) AppleWebKit/605.1.15 (KHTML, like Gecko) Version/14.1.2 Safari/605.1.15" etag="tFamE6zQtmMuXF3M5EWo" version="14.9.6" type="github">
  <diagram id="geJ27KR3I1ydW8EjFPuA" name="Page-1">
    <mxGraphModel dx="830" dy="648" grid="1" gridSize="10" guides="1" tooltips="1" connect="1" arrows="1" fold="1" page="1" pageScale="1" pageWidth="850" pageHeight="1100" math="0" shadow="0">
      <root>
        <mxCell id="0" />
        <mxCell id="1" parent="0" />
        <mxCell id="eOsEAwfiUuHw89T-37Cf-3" style="edgeStyle=orthogonalEdgeStyle;rounded=0;orthogonalLoop=1;jettySize=auto;html=1;" edge="1" parent="1" source="eOsEAwfiUuHw89T-37Cf-1" target="eOsEAwfiUuHw89T-37Cf-2">
          <mxGeometry relative="1" as="geometry" />
        </mxCell>
        <mxCell id="eOsEAwfiUuHw89T-37Cf-1" value="NodeJS&lt;br&gt;&lt;br&gt;Http backend" style="rounded=1;whiteSpace=wrap;html=1;" vertex="1" parent="1">
          <mxGeometry x="430" y="230" width="120" height="200" as="geometry" />
        </mxCell>
        <mxCell id="eOsEAwfiUuHw89T-37Cf-2" value="Mongo DB" style="shape=cylinder3;whiteSpace=wrap;html=1;boundedLbl=1;backgroundOutline=1;size=15;" vertex="1" parent="1">
          <mxGeometry x="650" y="280" width="60" height="80" as="geometry" />
        </mxCell>
        <mxCell id="eOsEAwfiUuHw89T-37Cf-5" style="edgeStyle=orthogonalEdgeStyle;rounded=0;orthogonalLoop=1;jettySize=auto;html=1;" edge="1" parent="1" source="eOsEAwfiUuHw89T-37Cf-4" target="eOsEAwfiUuHw89T-37Cf-1">
          <mxGeometry relative="1" as="geometry" />
        </mxCell>
        <mxCell id="eOsEAwfiUuHw89T-37Cf-6" value="Http (GET, POST, DELETE)" style="edgeLabel;html=1;align=center;verticalAlign=middle;resizable=0;points=[];" vertex="1" connectable="0" parent="eOsEAwfiUuHw89T-37Cf-5">
          <mxGeometry x="0.3529" y="1" relative="1" as="geometry">
            <mxPoint as="offset" />
          </mxGeometry>
        </mxCell>
        <mxCell id="eOsEAwfiUuHw89T-37Cf-4" value="PostMan" style="rounded=0;whiteSpace=wrap;html=1;" vertex="1" parent="1">
          <mxGeometry x="40" y="230" width="120" height="60" as="geometry" />
        </mxCell>
        <mxCell id="eOsEAwfiUuHw89T-37Cf-7" value="Workouts&lt;br&gt;&lt;br&gt;title&lt;br&gt;caloriesBurnt&lt;br&gt;" style="rounded=1;whiteSpace=wrap;html=1;" vertex="1" parent="1">
          <mxGeometry x="425" y="480" width="120" height="60" as="geometry" />
        </mxCell>
      </root>
    </mxGraphModel>
  </diagram>
</mxfile>
